<?xml version="1.0" encoding="UTF-8"?> <svg xmlns="http://www.w3.org/2000/svg" xmlns:xlink="http://www.w3.org/1999/xlink" width="184px" height="84px" viewBox="0 0 184 84" version="1.1"><title>employee-stock-ownership-icon</title><g id="Page-1" stroke="none" stroke-width="1" fill="none" fill-rule="evenodd" stroke-linecap="round"><g id="employee-stock-ownership-icon" transform="translate(2.000000, 2.000000)" stroke="#5A9FBE" stroke-width="4"><line x1="10.023" y1="57.885" x2="10.023" y2="79.654" id="Path"></line><line x1="23.601" y1="49.745" x2="23.601" y2="79.654" id="Path"></line><line x1="38.538" y1="53.048" x2="38.538" y2="79.654" id="Path"></line><line x1="51.815" y1="54.699" x2="51.815" y2="79.654" id="Path"></line><line x1="66.751" y1="48.094" x2="66.751" y2="79.654" id="Path"></line><line x1="95.267" y1="48.094" x2="94.965" y2="79.654" id="Path"></line><line x1="80.028" y1="39.839" x2="80.028" y2="79.654" id="Path"></line><line x1="111.863" y1="54.699" x2="111.561" y2="79.654" id="Path"></line><line x1="126.8" y1="51.397" x2="126.498" y2="79.654" id="Path"></line><line x1="143.396" y1="31.583" x2="143.094" y2="79.654" id="Path"></line><polyline id="Path" stroke-linejoin="round" points="0 52.932 23.606 38.187 51.701 44.741 83.84 24.547 104.519 43.102 127.328 38.739 143.551 7.062"></polyline><g id="Group" transform="translate(157.201000, 0.000000)"><line x1="11.617" y1="1.864" x2="11.617" y2="33.235" id="Path"></line><line x1="11.181" y1="0" x2="0" y2="16.969" id="Path" stroke-linejoin="round"></line><line x1="22.799" y1="0" x2="11.617" y2="16.969" id="Path" stroke-linejoin="round" transform="translate(17.208000, 8.484500) scale(-1, 1) translate(-17.208000, -8.484500) "></line></g><g id="Group" transform="translate(168.600500, 62.730500) rotate(-180.000000) translate(-168.600500, -62.730500) translate(157.201000, 46.113000)"><line x1="11.181" y1="1.864" x2="11.181" y2="33.235" id="Path"></line><line x1="11.181" y1="0" x2="0" y2="16.969" id="Path" stroke-linejoin="round"></line><line x1="22.799" y1="0" x2="11.617" y2="16.969" id="Path" stroke-linejoin="round" transform="translate(17.208000, 8.484500) scale(-1, 1) translate(-17.208000, -8.484500) "></line></g></g></g></svg> 